<svg xmlns="http://www.w3.org/2000/svg" xmlns:xlink="http://www.w3.org/1999/xlink" width="180" zoomAndPan="magnify" viewBox="0 0 135 135.000003" height="180" preserveAspectRatio="xMidYMid meet" version="1.2"><defs><clipPath id="1c784a745a"><path d="M 9.4375 53.375 L 32.144531 53.375 L 32.144531 76.050781 L 9.4375 76.050781 Z M 9.4375 53.375 "/></clipPath><clipPath id="3f742319e9"><path d="M 12.867188 56.777344 L 28.71875 56.777344 L 28.71875 72.648438 L 12.867188 72.648438 Z M 12.867188 56.777344 "/></clipPath></defs><g id="b5259c59d8"><g clip-rule="nonzero" clip-path="url(#1c784a745a)"><path style=" stroke:none;fill-rule:nonzero;fill:#000000;fill-opacity:1;" d="M 9.4375 53.375 L 32.113281 53.375 L 32.113281 76.050781 L 9.4375 76.050781 Z M 9.4375 53.375 "/></g><g clip-rule="nonzero" clip-path="url(#3f742319e9)"><path style=" stroke:none;fill-rule:nonzero;fill:#ffffff;fill-opacity:1;" d="M 12.867188 56.777344 L 28.71875 56.777344 L 28.71875 72.628906 L 12.867188 72.628906 Z M 12.867188 56.777344 "/></g><g style="fill:#000000;fill-opacity:1;"><g transform="translate(37.841678, 73.266534)"><path style="stroke:none" d="M 15.1875 -6.953125 C 15.1875 -5.960938 15 -5.023438 14.625 -4.140625 C 14.257812 -3.253906 13.753906 -2.488281 13.109375 -1.84375 C 12.472656 -1.207031 11.71875 -0.703125 10.84375 -0.328125 C 9.96875 0.0351562 9.035156 0.21875 8.046875 0.21875 C 7.046875 0.21875 6.101562 0.0351562 5.21875 -0.328125 C 4.34375 -0.703125 3.582031 -1.207031 2.9375 -1.84375 C 2.300781 -2.488281 1.796875 -3.253906 1.421875 -4.140625 C 1.054688 -5.023438 0.875 -5.960938 0.875 -6.953125 C 0.875 -7.941406 1.054688 -8.875 1.421875 -9.75 C 1.796875 -10.632812 2.300781 -11.398438 2.9375 -12.046875 C 3.582031 -12.691406 4.34375 -13.195312 5.21875 -13.5625 C 6.101562 -13.9375 7.046875 -14.125 8.046875 -14.125 C 9.035156 -14.125 9.96875 -13.9375 10.84375 -13.5625 C 11.71875 -13.195312 12.472656 -12.691406 13.109375 -12.046875 C 13.753906 -11.398438 14.257812 -10.632812 14.625 -9.75 C 15 -8.875 15.1875 -7.941406 15.1875 -6.953125 Z M 13.640625 -6.953125 C 13.640625 -7.753906 13.492188 -8.507812 13.203125 -9.21875 C 12.910156 -9.925781 12.515625 -10.535156 12.015625 -11.046875 C 11.523438 -11.554688 10.9375 -11.957031 10.25 -12.25 C 9.5625 -12.550781 8.828125 -12.703125 8.046875 -12.703125 C 7.242188 -12.703125 6.5 -12.550781 5.8125 -12.25 C 5.125 -11.957031 4.53125 -11.554688 4.03125 -11.046875 C 3.539062 -10.535156 3.148438 -9.925781 2.859375 -9.21875 C 2.566406 -8.507812 2.421875 -7.753906 2.421875 -6.953125 C 2.421875 -6.140625 2.566406 -5.382812 2.859375 -4.6875 C 3.148438 -3.988281 3.539062 -3.378906 4.03125 -2.859375 C 4.53125 -2.335938 5.125 -1.925781 5.8125 -1.625 C 6.5 -1.332031 7.242188 -1.1875 8.046875 -1.1875 C 8.828125 -1.1875 9.5625 -1.332031 10.25 -1.625 C 10.9375 -1.925781 11.523438 -2.335938 12.015625 -2.859375 C 12.515625 -3.378906 12.910156 -3.988281 13.203125 -4.6875 C 13.492188 -5.382812 13.640625 -6.140625 13.640625 -6.953125 Z M 13.640625 -6.953125 "/></g></g><g style="fill:#000000;fill-opacity:1;"><g transform="translate(53.912814, 73.266534)"><path style="stroke:none" d="M 1.25 0 L 1.25 -9.953125 L 2.71875 -9.953125 L 2.71875 -8.859375 C 3.09375 -9.285156 3.523438 -9.601562 4.015625 -9.8125 C 4.503906 -10.03125 5.046875 -10.140625 5.640625 -10.140625 C 6.328125 -10.140625 6.945312 -9.976562 7.5 -9.65625 C 8.050781 -9.332031 8.476562 -8.894531 8.78125 -8.34375 C 9.1875 -8.945312 9.675781 -9.394531 10.25 -9.6875 C 10.832031 -9.988281 11.476562 -10.140625 12.1875 -10.140625 C 13.257812 -10.140625 14.132812 -9.78125 14.8125 -9.0625 C 15.5 -8.351562 15.84375 -7.429688 15.84375 -6.296875 L 15.84375 0 L 14.390625 0 L 14.390625 -6 C 14.390625 -6.875 14.160156 -7.566406 13.703125 -8.078125 C 13.242188 -8.597656 12.613281 -8.859375 11.8125 -8.859375 C 11.269531 -8.859375 10.773438 -8.71875 10.328125 -8.4375 C 9.878906 -8.15625 9.492188 -7.753906 9.171875 -7.234375 C 9.203125 -7.085938 9.226562 -6.9375 9.25 -6.78125 C 9.269531 -6.625 9.28125 -6.460938 9.28125 -6.296875 L 9.28125 0 L 7.828125 0 L 7.828125 -6 C 7.828125 -6.875 7.59375 -7.566406 7.125 -8.078125 C 6.664062 -8.597656 6.046875 -8.859375 5.265625 -8.859375 C 4.734375 -8.859375 4.25 -8.734375 3.8125 -8.484375 C 3.382812 -8.242188 3.019531 -7.882812 2.71875 -7.40625 L 2.71875 0 Z M 1.25 0 "/></g></g><g style="fill:#000000;fill-opacity:1;"><g transform="translate(70.977219, 73.266534)"><path style="stroke:none" d="M 9.625 -1.046875 C 9.070312 -0.640625 8.492188 -0.332031 7.890625 -0.125 C 7.285156 0.0703125 6.628906 0.171875 5.921875 0.171875 C 5.203125 0.171875 4.523438 0.0390625 3.890625 -0.21875 C 3.265625 -0.476562 2.722656 -0.835938 2.265625 -1.296875 C 1.816406 -1.765625 1.457031 -2.3125 1.1875 -2.9375 C 0.925781 -3.570312 0.796875 -4.253906 0.796875 -4.984375 C 0.796875 -5.703125 0.921875 -6.367188 1.171875 -6.984375 C 1.429688 -7.609375 1.78125 -8.148438 2.21875 -8.609375 C 2.65625 -9.078125 3.175781 -9.441406 3.78125 -9.703125 C 4.382812 -9.972656 5.023438 -10.109375 5.703125 -10.109375 C 6.359375 -10.109375 6.972656 -9.972656 7.546875 -9.703125 C 8.128906 -9.441406 8.628906 -9.078125 9.046875 -8.609375 C 9.460938 -8.148438 9.789062 -7.609375 10.03125 -6.984375 C 10.28125 -6.367188 10.40625 -5.703125 10.40625 -4.984375 L 10.40625 -4.53125 L 2.25 -4.53125 C 2.351562 -3.550781 2.753906 -2.734375 3.453125 -2.078125 C 4.160156 -1.429688 5.003906 -1.109375 5.984375 -1.109375 C 6.492188 -1.109375 6.992188 -1.1875 7.484375 -1.34375 C 7.972656 -1.507812 8.382812 -1.738281 8.71875 -2.03125 Z M 5.65625 -8.8125 C 4.800781 -8.8125 4.054688 -8.519531 3.421875 -7.9375 C 2.796875 -7.351562 2.414062 -6.609375 2.28125 -5.703125 L 8.9375 -5.703125 C 8.800781 -6.578125 8.425781 -7.3125 7.8125 -7.90625 C 7.195312 -8.507812 6.476562 -8.8125 5.65625 -8.8125 Z M 5.65625 -8.8125 "/></g></g><g style="fill:#000000;fill-opacity:1;"><g transform="translate(82.181323, 73.266534)"><path style="stroke:none" d="M 1.25 0 L 1.25 -9.953125 L 2.71875 -9.953125 L 2.71875 -8.78125 C 3.101562 -9.226562 3.5625 -9.566406 4.09375 -9.796875 C 4.625 -10.023438 5.210938 -10.140625 5.859375 -10.140625 C 6.984375 -10.140625 7.898438 -9.78125 8.609375 -9.0625 C 9.328125 -8.351562 9.6875 -7.429688 9.6875 -6.296875 L 9.6875 0 L 8.234375 0 L 8.234375 -6 C 8.234375 -6.875 7.984375 -7.566406 7.484375 -8.078125 C 6.984375 -8.597656 6.3125 -8.859375 5.46875 -8.859375 C 4.863281 -8.859375 4.328125 -8.722656 3.859375 -8.453125 C 3.390625 -8.191406 3.007812 -7.816406 2.71875 -7.328125 L 2.71875 0 Z M 1.25 0 "/></g></g><g style="fill:#000000;fill-opacity:1;"><g transform="translate(93.087447, 73.266534)"><path style="stroke:none" d="M 2.484375 -2.21875 L 2.484375 -8.703125 L 0.34375 -8.703125 L 0.34375 -9.953125 L 2.484375 -9.953125 L 2.484375 -12.46875 L 3.9375 -12.84375 L 3.9375 -9.953125 L 6.9375 -9.953125 L 6.9375 -8.703125 L 3.9375 -8.703125 L 3.9375 -2.609375 C 3.9375 -2.078125 4.050781 -1.691406 4.28125 -1.453125 C 4.519531 -1.222656 4.914062 -1.109375 5.46875 -1.109375 C 5.738281 -1.109375 5.984375 -1.128906 6.203125 -1.171875 C 6.421875 -1.210938 6.65625 -1.28125 6.90625 -1.375 L 6.90625 -0.078125 C 6.65625 0.015625 6.375 0.078125 6.0625 0.109375 C 5.75 0.148438 5.445312 0.171875 5.15625 0.171875 C 4.300781 0.171875 3.640625 -0.03125 3.171875 -0.4375 C 2.710938 -0.84375 2.484375 -1.4375 2.484375 -2.21875 Z M 2.484375 -2.21875 "/></g></g><g style="fill:#000000;fill-opacity:1;"><g transform="translate(100.338331, 73.266534)"><path style="stroke:none" d="M 1.984375 -11.859375 C 1.722656 -11.859375 1.492188 -11.957031 1.296875 -12.15625 C 1.097656 -12.351562 1 -12.582031 1 -12.84375 C 1 -13.125 1.097656 -13.359375 1.296875 -13.546875 C 1.492188 -13.742188 1.722656 -13.84375 1.984375 -13.84375 C 2.265625 -13.84375 2.5 -13.742188 2.6875 -13.546875 C 2.882812 -13.359375 2.984375 -13.125 2.984375 -12.84375 C 2.984375 -12.582031 2.882812 -12.351562 2.6875 -12.15625 C 2.5 -11.957031 2.265625 -11.859375 1.984375 -11.859375 Z M 2.71875 -9.953125 L 2.71875 0 L 1.25 0 L 1.25 -9.953125 Z M 2.71875 -9.953125 "/></g></g><g style="fill:#000000;fill-opacity:1;"><g transform="translate(104.311418, 73.266534)"><path style="stroke:none" d="M 5.890625 -1.15625 C 6.421875 -1.15625 6.929688 -1.257812 7.421875 -1.46875 C 7.910156 -1.675781 8.367188 -1.988281 8.796875 -2.40625 L 9.71875 -1.40625 C 9.1875 -0.90625 8.585938 -0.515625 7.921875 -0.234375 C 7.265625 0.0351562 6.578125 0.171875 5.859375 0.171875 C 5.160156 0.171875 4.5 0.0390625 3.875 -0.21875 C 3.25 -0.476562 2.710938 -0.835938 2.265625 -1.296875 C 1.816406 -1.765625 1.457031 -2.316406 1.1875 -2.953125 C 0.925781 -3.585938 0.796875 -4.265625 0.796875 -4.984375 C 0.796875 -5.703125 0.925781 -6.375 1.1875 -7 C 1.457031 -7.625 1.816406 -8.164062 2.265625 -8.625 C 2.710938 -9.09375 3.25 -9.460938 3.875 -9.734375 C 4.5 -10.003906 5.160156 -10.140625 5.859375 -10.140625 C 6.578125 -10.140625 7.273438 -10 7.953125 -9.71875 C 8.628906 -9.445312 9.226562 -9.066406 9.75 -8.578125 L 8.8125 -7.5 C 8.414062 -7.914062 7.957031 -8.234375 7.4375 -8.453125 C 6.925781 -8.679688 6.40625 -8.796875 5.875 -8.796875 C 5.375 -8.796875 4.894531 -8.695312 4.4375 -8.5 C 3.988281 -8.300781 3.601562 -8.03125 3.28125 -7.6875 C 2.957031 -7.34375 2.703125 -6.9375 2.515625 -6.46875 C 2.335938 -6.007812 2.25 -5.515625 2.25 -4.984375 C 2.25 -4.441406 2.34375 -3.9375 2.53125 -3.46875 C 2.71875 -3 2.972656 -2.59375 3.296875 -2.25 C 3.628906 -1.914062 4.019531 -1.648438 4.46875 -1.453125 C 4.914062 -1.253906 5.390625 -1.15625 5.890625 -1.15625 Z M 5.890625 -1.15625 "/></g></g><g style="fill:#000000;fill-opacity:1;"><g transform="translate(114.502386, 73.266534)"><path style="stroke:none" d="M 0.234375 -1.375 L 1.125 -2.328125 C 1.582031 -1.898438 2.09375 -1.570312 2.65625 -1.34375 C 3.21875 -1.113281 3.789062 -1 4.375 -1 C 5.164062 -1 5.8125 -1.160156 6.3125 -1.484375 C 6.8125 -1.816406 7.0625 -2.25 7.0625 -2.78125 C 7.0625 -3.207031 6.910156 -3.539062 6.609375 -3.78125 C 6.316406 -4.03125 5.851562 -4.203125 5.21875 -4.296875 L 3.5 -4.53125 C 2.5 -4.675781 1.757812 -4.96875 1.28125 -5.40625 C 0.800781 -5.851562 0.5625 -6.453125 0.5625 -7.203125 C 0.5625 -8.035156 0.910156 -8.726562 1.609375 -9.28125 C 2.304688 -9.832031 3.203125 -10.109375 4.296875 -10.109375 C 5.003906 -10.109375 5.675781 -10 6.3125 -9.78125 C 6.957031 -9.570312 7.585938 -9.242188 8.203125 -8.796875 L 7.421875 -7.8125 C 6.867188 -8.175781 6.332031 -8.453125 5.8125 -8.640625 C 5.289062 -8.828125 4.753906 -8.921875 4.203125 -8.921875 C 3.535156 -8.921875 2.984375 -8.765625 2.546875 -8.453125 C 2.117188 -8.148438 1.90625 -7.753906 1.90625 -7.265625 C 1.90625 -6.847656 2.050781 -6.519531 2.34375 -6.28125 C 2.632812 -6.050781 3.101562 -5.890625 3.75 -5.796875 L 5.484375 -5.5625 C 6.472656 -5.425781 7.210938 -5.128906 7.703125 -4.671875 C 8.203125 -4.210938 8.453125 -3.609375 8.453125 -2.859375 C 8.453125 -2.429688 8.347656 -2.03125 8.140625 -1.65625 C 7.941406 -1.28125 7.660156 -0.957031 7.296875 -0.6875 C 6.929688 -0.414062 6.503906 -0.203125 6.015625 -0.046875 C 5.523438 0.0976562 4.992188 0.171875 4.421875 0.171875 C 3.609375 0.171875 2.835938 0.0351562 2.109375 -0.234375 C 1.390625 -0.503906 0.765625 -0.882812 0.234375 -1.375 Z M 0.234375 -1.375 "/></g></g><g style="fill:#000000;fill-opacity:1;"><g transform="translate(84.55255, 79.688101)"><path style="stroke:none" d="M 1.71875 -0.203125 L 0.609375 -2.46875 L 0.609375 0 L 0.3125 0 L 0.3125 -2.828125 L 0.75 -2.828125 L 1.71875 -0.828125 L 2.671875 -2.828125 L 3.109375 -2.828125 L 3.109375 0 L 2.828125 0 L 2.828125 -2.484375 Z M 1.71875 -0.203125 "/></g></g><g style="fill:#000000;fill-opacity:1;"><g transform="translate(87.975533, 79.688101)"><path style="stroke:none" d="M 0.40625 -2.421875 C 0.351562 -2.421875 0.304688 -2.4375 0.265625 -2.46875 C 0.222656 -2.507812 0.203125 -2.5625 0.203125 -2.625 C 0.203125 -2.675781 0.222656 -2.722656 0.265625 -2.765625 C 0.304688 -2.804688 0.351562 -2.828125 0.40625 -2.828125 C 0.457031 -2.828125 0.503906 -2.804688 0.546875 -2.765625 C 0.585938 -2.722656 0.609375 -2.675781 0.609375 -2.625 C 0.609375 -2.5625 0.585938 -2.507812 0.546875 -2.46875 C 0.503906 -2.4375 0.457031 -2.421875 0.40625 -2.421875 Z M 0.546875 -2.03125 L 0.546875 0 L 0.25 0 L 0.25 -2.03125 Z M 0.546875 -2.03125 "/></g></g><g style="fill:#000000;fill-opacity:1;"><g transform="translate(88.783795, 79.688101)"><path style="stroke:none" d="M 0.25 0 L 0.25 -2.03125 L 0.546875 -2.03125 L 0.546875 -1.78125 C 0.628906 -1.875 0.722656 -1.941406 0.828125 -1.984375 C 0.941406 -2.035156 1.0625 -2.0625 1.1875 -2.0625 C 1.414062 -2.0625 1.601562 -1.988281 1.75 -1.84375 C 1.894531 -1.695312 1.96875 -1.507812 1.96875 -1.28125 L 1.96875 0 L 1.671875 0 L 1.671875 -1.21875 C 1.671875 -1.394531 1.617188 -1.535156 1.515625 -1.640625 C 1.421875 -1.753906 1.285156 -1.8125 1.109375 -1.8125 C 0.992188 -1.8125 0.882812 -1.78125 0.78125 -1.71875 C 0.6875 -1.664062 0.609375 -1.59375 0.546875 -1.5 L 0.546875 0 Z M 0.25 0 "/></g></g><g style="fill:#000000;fill-opacity:1;"><g transform="translate(91.002467, 79.688101)"><path style="stroke:none" d="M 0.40625 -2.421875 C 0.351562 -2.421875 0.304688 -2.4375 0.265625 -2.46875 C 0.222656 -2.507812 0.203125 -2.5625 0.203125 -2.625 C 0.203125 -2.675781 0.222656 -2.722656 0.265625 -2.765625 C 0.304688 -2.804688 0.351562 -2.828125 0.40625 -2.828125 C 0.457031 -2.828125 0.503906 -2.804688 0.546875 -2.765625 C 0.585938 -2.722656 0.609375 -2.675781 0.609375 -2.625 C 0.609375 -2.5625 0.585938 -2.507812 0.546875 -2.46875 C 0.503906 -2.4375 0.457031 -2.421875 0.40625 -2.421875 Z M 0.546875 -2.03125 L 0.546875 0 L 0.25 0 L 0.25 -2.03125 Z M 0.546875 -2.03125 "/></g></g><g style="fill:#000000;fill-opacity:1;"><g transform="translate(91.81073, 79.688101)"><path style="stroke:none" d="M 0.25 0 L 0.25 -2.03125 L 0.546875 -2.03125 L 0.546875 -1.78125 C 0.628906 -1.875 0.722656 -1.941406 0.828125 -1.984375 C 0.941406 -2.035156 1.0625 -2.0625 1.1875 -2.0625 C 1.414062 -2.0625 1.601562 -1.988281 1.75 -1.84375 C 1.894531 -1.695312 1.96875 -1.507812 1.96875 -1.28125 L 1.96875 0 L 1.671875 0 L 1.671875 -1.21875 C 1.671875 -1.394531 1.617188 -1.535156 1.515625 -1.640625 C 1.421875 -1.753906 1.285156 -1.8125 1.109375 -1.8125 C 0.992188 -1.8125 0.882812 -1.78125 0.78125 -1.71875 C 0.6875 -1.664062 0.609375 -1.59375 0.546875 -1.5 L 0.546875 0 Z M 0.25 0 "/></g></g><g style="fill:#000000;fill-opacity:1;"><g transform="translate(94.029402, 79.688101)"><path style="stroke:none" d="M 1.171875 0.015625 C 1.035156 0.015625 0.90625 -0.0078125 0.78125 -0.0625 C 0.65625 -0.113281 0.546875 -0.1875 0.453125 -0.28125 C 0.359375 -0.375 0.285156 -0.484375 0.234375 -0.609375 C 0.179688 -0.742188 0.15625 -0.882812 0.15625 -1.03125 C 0.15625 -1.175781 0.179688 -1.3125 0.234375 -1.4375 C 0.285156 -1.5625 0.359375 -1.671875 0.453125 -1.765625 C 0.546875 -1.859375 0.65625 -1.929688 0.78125 -1.984375 C 0.90625 -2.035156 1.039062 -2.0625 1.1875 -2.0625 C 1.300781 -2.0625 1.410156 -2.039062 1.515625 -2 C 1.628906 -1.957031 1.734375 -1.898438 1.828125 -1.828125 L 1.828125 -2.03125 L 2.109375 -2.03125 L 2.109375 0.046875 C 2.109375 0.304688 2.03125 0.503906 1.875 0.640625 C 1.726562 0.785156 1.519531 0.859375 1.25 0.859375 C 1.101562 0.859375 0.960938 0.835938 0.828125 0.796875 C 0.691406 0.765625 0.566406 0.710938 0.453125 0.640625 L 0.578125 0.40625 C 0.703125 0.46875 0.816406 0.515625 0.921875 0.546875 C 1.023438 0.578125 1.128906 0.59375 1.234375 0.59375 C 1.421875 0.59375 1.5625 0.546875 1.65625 0.453125 C 1.757812 0.359375 1.8125 0.222656 1.8125 0.046875 L 1.8125 -0.21875 C 1.71875 -0.144531 1.617188 -0.0859375 1.515625 -0.046875 C 1.410156 -0.00390625 1.296875 0.015625 1.171875 0.015625 Z M 0.453125 -1.03125 C 0.453125 -0.914062 0.472656 -0.8125 0.515625 -0.71875 C 0.554688 -0.625 0.609375 -0.539062 0.671875 -0.46875 C 0.734375 -0.40625 0.8125 -0.351562 0.90625 -0.3125 C 1 -0.269531 1.097656 -0.25 1.203125 -0.25 C 1.328125 -0.25 1.441406 -0.269531 1.546875 -0.3125 C 1.660156 -0.363281 1.75 -0.4375 1.8125 -0.53125 L 1.8125 -1.515625 C 1.75 -1.609375 1.660156 -1.675781 1.546875 -1.71875 C 1.441406 -1.769531 1.328125 -1.796875 1.203125 -1.796875 C 1.097656 -1.796875 1 -1.773438 0.90625 -1.734375 C 0.8125 -1.691406 0.734375 -1.632812 0.671875 -1.5625 C 0.609375 -1.5 0.554688 -1.421875 0.515625 -1.328125 C 0.472656 -1.234375 0.453125 -1.132812 0.453125 -1.03125 Z M 0.453125 -1.03125 "/></g></g><g style="fill:#000000;fill-opacity:1;"><g transform="translate(96.397601, 79.688101)"><path style="stroke:none" d=""/></g></g><g style="fill:#000000;fill-opacity:1;"><g transform="translate(97.26648, 79.688101)"><path style="stroke:none" d="M 0.0625 -2.546875 L 0.0625 -2.828125 L 2.421875 -2.828125 L 2.421875 -2.546875 L 1.40625 -2.546875 L 1.40625 0 L 1.09375 0 L 1.09375 -2.546875 Z M 0.0625 -2.546875 "/></g></g><g style="fill:#000000;fill-opacity:1;"><g transform="translate(99.759962, 79.688101)"><path style="stroke:none" d="M 1.96875 -0.21875 C 1.851562 -0.132812 1.734375 -0.0703125 1.609375 -0.03125 C 1.484375 0.0078125 1.347656 0.03125 1.203125 0.03125 C 1.054688 0.03125 0.921875 0.00390625 0.796875 -0.046875 C 0.671875 -0.0976562 0.5625 -0.171875 0.46875 -0.265625 C 0.375 -0.359375 0.296875 -0.46875 0.234375 -0.59375 C 0.179688 -0.726562 0.15625 -0.867188 0.15625 -1.015625 C 0.15625 -1.160156 0.179688 -1.296875 0.234375 -1.421875 C 0.285156 -1.546875 0.359375 -1.65625 0.453125 -1.75 C 0.546875 -1.84375 0.648438 -1.914062 0.765625 -1.96875 C 0.890625 -2.03125 1.019531 -2.0625 1.15625 -2.0625 C 1.289062 -2.0625 1.414062 -2.03125 1.53125 -1.96875 C 1.65625 -1.914062 1.757812 -1.84375 1.84375 -1.75 C 1.925781 -1.65625 1.992188 -1.546875 2.046875 -1.421875 C 2.097656 -1.296875 2.125 -1.160156 2.125 -1.015625 L 2.125 -0.921875 L 0.453125 -0.921875 C 0.472656 -0.722656 0.554688 -0.554688 0.703125 -0.421875 C 0.847656 -0.296875 1.019531 -0.234375 1.21875 -0.234375 C 1.320312 -0.234375 1.421875 -0.25 1.515625 -0.28125 C 1.617188 -0.3125 1.707031 -0.351562 1.78125 -0.40625 Z M 1.15625 -1.796875 C 0.976562 -1.796875 0.820312 -1.734375 0.6875 -1.609375 C 0.5625 -1.492188 0.488281 -1.34375 0.46875 -1.15625 L 1.828125 -1.15625 C 1.796875 -1.332031 1.71875 -1.484375 1.59375 -1.609375 C 1.46875 -1.734375 1.320312 -1.796875 1.15625 -1.796875 Z M 1.15625 -1.796875 "/></g></g><g style="fill:#000000;fill-opacity:1;"><g transform="translate(102.039256, 79.688101)"><path style="stroke:none" d="M 1.203125 -0.234375 C 1.304688 -0.234375 1.40625 -0.253906 1.5 -0.296875 C 1.601562 -0.335938 1.703125 -0.398438 1.796875 -0.484375 L 1.984375 -0.28125 C 1.867188 -0.1875 1.742188 -0.109375 1.609375 -0.046875 C 1.472656 0.00390625 1.332031 0.03125 1.1875 0.03125 C 1.050781 0.03125 0.914062 0.00390625 0.78125 -0.046875 C 0.65625 -0.0976562 0.546875 -0.171875 0.453125 -0.265625 C 0.367188 -0.359375 0.296875 -0.46875 0.234375 -0.59375 C 0.179688 -0.726562 0.15625 -0.867188 0.15625 -1.015625 C 0.15625 -1.160156 0.179688 -1.296875 0.234375 -1.421875 C 0.296875 -1.554688 0.367188 -1.671875 0.453125 -1.765625 C 0.546875 -1.859375 0.65625 -1.929688 0.78125 -1.984375 C 0.914062 -2.035156 1.050781 -2.0625 1.1875 -2.0625 C 1.332031 -2.0625 1.472656 -2.03125 1.609375 -1.96875 C 1.753906 -1.914062 1.878906 -1.84375 1.984375 -1.75 L 1.796875 -1.53125 C 1.710938 -1.613281 1.617188 -1.675781 1.515625 -1.71875 C 1.410156 -1.769531 1.304688 -1.796875 1.203125 -1.796875 C 1.097656 -1.796875 1 -1.773438 0.90625 -1.734375 C 0.8125 -1.691406 0.734375 -1.632812 0.671875 -1.5625 C 0.609375 -1.488281 0.554688 -1.40625 0.515625 -1.3125 C 0.472656 -1.21875 0.453125 -1.117188 0.453125 -1.015625 C 0.453125 -0.898438 0.472656 -0.796875 0.515625 -0.703125 C 0.554688 -0.609375 0.609375 -0.523438 0.671875 -0.453125 C 0.734375 -0.390625 0.8125 -0.335938 0.90625 -0.296875 C 1 -0.253906 1.097656 -0.234375 1.203125 -0.234375 Z M 1.203125 -0.234375 "/></g></g><g style="fill:#000000;fill-opacity:1;"><g transform="translate(104.112441, 79.688101)"><path style="stroke:none" d="M 0.25 0 L 0.25 -2.828125 L 0.546875 -2.90625 L 0.546875 -1.78125 C 0.628906 -1.875 0.722656 -1.941406 0.828125 -1.984375 C 0.941406 -2.035156 1.0625 -2.0625 1.1875 -2.0625 C 1.414062 -2.0625 1.601562 -1.988281 1.75 -1.84375 C 1.894531 -1.695312 1.96875 -1.507812 1.96875 -1.28125 L 1.96875 0 L 1.671875 0 L 1.671875 -1.21875 C 1.671875 -1.394531 1.617188 -1.535156 1.515625 -1.640625 C 1.421875 -1.753906 1.285156 -1.8125 1.109375 -1.8125 C 0.992188 -1.8125 0.882812 -1.78125 0.78125 -1.71875 C 0.6875 -1.664062 0.609375 -1.59375 0.546875 -1.5 L 0.546875 0 Z M 0.25 0 "/></g></g><g style="fill:#000000;fill-opacity:1;"><g transform="translate(106.331113, 79.688101)"><path style="stroke:none" d="M 0.25 0 L 0.25 -2.03125 L 0.546875 -2.03125 L 0.546875 -1.78125 C 0.628906 -1.875 0.722656 -1.941406 0.828125 -1.984375 C 0.941406 -2.035156 1.0625 -2.0625 1.1875 -2.0625 C 1.414062 -2.0625 1.601562 -1.988281 1.75 -1.84375 C 1.894531 -1.695312 1.96875 -1.507812 1.96875 -1.28125 L 1.96875 0 L 1.671875 0 L 1.671875 -1.21875 C 1.671875 -1.394531 1.617188 -1.535156 1.515625 -1.640625 C 1.421875 -1.753906 1.285156 -1.8125 1.109375 -1.8125 C 0.992188 -1.8125 0.882812 -1.78125 0.78125 -1.71875 C 0.6875 -1.664062 0.609375 -1.59375 0.546875 -1.5 L 0.546875 0 Z M 0.25 0 "/></g></g><g style="fill:#000000;fill-opacity:1;"><g transform="translate(108.549785, 79.688101)"><path style="stroke:none" d="M 0.15625 -1.015625 C 0.15625 -1.160156 0.179688 -1.296875 0.234375 -1.421875 C 0.296875 -1.554688 0.375 -1.671875 0.46875 -1.765625 C 0.5625 -1.859375 0.671875 -1.929688 0.796875 -1.984375 C 0.921875 -2.035156 1.054688 -2.0625 1.203125 -2.0625 C 1.335938 -2.0625 1.46875 -2.035156 1.59375 -1.984375 C 1.71875 -1.929688 1.828125 -1.859375 1.921875 -1.765625 C 2.015625 -1.671875 2.085938 -1.554688 2.140625 -1.421875 C 2.203125 -1.296875 2.234375 -1.160156 2.234375 -1.015625 C 2.234375 -0.867188 2.203125 -0.726562 2.140625 -0.59375 C 2.085938 -0.46875 2.015625 -0.359375 1.921875 -0.265625 C 1.828125 -0.171875 1.71875 -0.09375 1.59375 -0.03125 C 1.46875 0.0195312 1.335938 0.046875 1.203125 0.046875 C 1.054688 0.046875 0.921875 0.0195312 0.796875 -0.03125 C 0.671875 -0.09375 0.5625 -0.171875 0.46875 -0.265625 C 0.375 -0.359375 0.296875 -0.46875 0.234375 -0.59375 C 0.179688 -0.726562 0.15625 -0.867188 0.15625 -1.015625 Z M 1.203125 -0.234375 C 1.304688 -0.234375 1.398438 -0.25 1.484375 -0.28125 C 1.578125 -0.320312 1.65625 -0.378906 1.71875 -0.453125 C 1.789062 -0.523438 1.84375 -0.609375 1.875 -0.703125 C 1.914062 -0.796875 1.9375 -0.898438 1.9375 -1.015625 C 1.9375 -1.128906 1.914062 -1.234375 1.875 -1.328125 C 1.84375 -1.421875 1.789062 -1.5 1.71875 -1.5625 C 1.65625 -1.632812 1.578125 -1.691406 1.484375 -1.734375 C 1.398438 -1.773438 1.304688 -1.796875 1.203125 -1.796875 C 1.097656 -1.796875 1 -1.773438 0.90625 -1.734375 C 0.8125 -1.691406 0.734375 -1.632812 0.671875 -1.5625 C 0.609375 -1.5 0.554688 -1.421875 0.515625 -1.328125 C 0.472656 -1.234375 0.453125 -1.128906 0.453125 -1.015625 C 0.453125 -0.898438 0.472656 -0.796875 0.515625 -0.703125 C 0.554688 -0.609375 0.609375 -0.523438 0.671875 -0.453125 C 0.734375 -0.378906 0.8125 -0.320312 0.90625 -0.28125 C 1 -0.25 1.097656 -0.234375 1.203125 -0.234375 Z M 1.203125 -0.234375 "/></g></g><g style="fill:#000000;fill-opacity:1;"><g transform="translate(110.938195, 79.688101)"><path style="stroke:none" d="M 0.546875 -2.90625 L 0.546875 0 L 0.25 0 L 0.25 -2.828125 Z M 0.546875 -2.90625 "/></g></g><g style="fill:#000000;fill-opacity:1;"><g transform="translate(111.746458, 79.688101)"><path style="stroke:none" d="M 0.15625 -1.015625 C 0.15625 -1.160156 0.179688 -1.296875 0.234375 -1.421875 C 0.296875 -1.554688 0.375 -1.671875 0.46875 -1.765625 C 0.5625 -1.859375 0.671875 -1.929688 0.796875 -1.984375 C 0.921875 -2.035156 1.054688 -2.0625 1.203125 -2.0625 C 1.335938 -2.0625 1.46875 -2.035156 1.59375 -1.984375 C 1.71875 -1.929688 1.828125 -1.859375 1.921875 -1.765625 C 2.015625 -1.671875 2.085938 -1.554688 2.140625 -1.421875 C 2.203125 -1.296875 2.234375 -1.160156 2.234375 -1.015625 C 2.234375 -0.867188 2.203125 -0.726562 2.140625 -0.59375 C 2.085938 -0.46875 2.015625 -0.359375 1.921875 -0.265625 C 1.828125 -0.171875 1.71875 -0.09375 1.59375 -0.03125 C 1.46875 0.0195312 1.335938 0.046875 1.203125 0.046875 C 1.054688 0.046875 0.921875 0.0195312 0.796875 -0.03125 C 0.671875 -0.09375 0.5625 -0.171875 0.46875 -0.265625 C 0.375 -0.359375 0.296875 -0.46875 0.234375 -0.59375 C 0.179688 -0.726562 0.15625 -0.867188 0.15625 -1.015625 Z M 1.203125 -0.234375 C 1.304688 -0.234375 1.398438 -0.25 1.484375 -0.28125 C 1.578125 -0.320312 1.65625 -0.378906 1.71875 -0.453125 C 1.789062 -0.523438 1.84375 -0.609375 1.875 -0.703125 C 1.914062 -0.796875 1.9375 -0.898438 1.9375 -1.015625 C 1.9375 -1.128906 1.914062 -1.234375 1.875 -1.328125 C 1.84375 -1.421875 1.789062 -1.5 1.71875 -1.5625 C 1.65625 -1.632812 1.578125 -1.691406 1.484375 -1.734375 C 1.398438 -1.773438 1.304688 -1.796875 1.203125 -1.796875 C 1.097656 -1.796875 1 -1.773438 0.90625 -1.734375 C 0.8125 -1.691406 0.734375 -1.632812 0.671875 -1.5625 C 0.609375 -1.5 0.554688 -1.421875 0.515625 -1.328125 C 0.472656 -1.234375 0.453125 -1.128906 0.453125 -1.015625 C 0.453125 -0.898438 0.472656 -0.796875 0.515625 -0.703125 C 0.554688 -0.609375 0.609375 -0.523438 0.671875 -0.453125 C 0.734375 -0.378906 0.8125 -0.320312 0.90625 -0.28125 C 1 -0.25 1.097656 -0.234375 1.203125 -0.234375 Z M 1.203125 -0.234375 "/></g></g><g style="fill:#000000;fill-opacity:1;"><g transform="translate(114.134868, 79.688101)"><path style="stroke:none" d="M 1.171875 0.015625 C 1.035156 0.015625 0.90625 -0.0078125 0.78125 -0.0625 C 0.65625 -0.113281 0.546875 -0.1875 0.453125 -0.28125 C 0.359375 -0.375 0.285156 -0.484375 0.234375 -0.609375 C 0.179688 -0.742188 0.15625 -0.882812 0.15625 -1.03125 C 0.15625 -1.175781 0.179688 -1.3125 0.234375 -1.4375 C 0.285156 -1.5625 0.359375 -1.671875 0.453125 -1.765625 C 0.546875 -1.859375 0.65625 -1.929688 0.78125 -1.984375 C 0.90625 -2.035156 1.039062 -2.0625 1.1875 -2.0625 C 1.300781 -2.0625 1.410156 -2.039062 1.515625 -2 C 1.628906 -1.957031 1.734375 -1.898438 1.828125 -1.828125 L 1.828125 -2.03125 L 2.109375 -2.03125 L 2.109375 0.046875 C 2.109375 0.304688 2.03125 0.503906 1.875 0.640625 C 1.726562 0.785156 1.519531 0.859375 1.25 0.859375 C 1.101562 0.859375 0.960938 0.835938 0.828125 0.796875 C 0.691406 0.765625 0.566406 0.710938 0.453125 0.640625 L 0.578125 0.40625 C 0.703125 0.46875 0.816406 0.515625 0.921875 0.546875 C 1.023438 0.578125 1.128906 0.59375 1.234375 0.59375 C 1.421875 0.59375 1.5625 0.546875 1.65625 0.453125 C 1.757812 0.359375 1.8125 0.222656 1.8125 0.046875 L 1.8125 -0.21875 C 1.71875 -0.144531 1.617188 -0.0859375 1.515625 -0.046875 C 1.410156 -0.00390625 1.296875 0.015625 1.171875 0.015625 Z M 0.453125 -1.03125 C 0.453125 -0.914062 0.472656 -0.8125 0.515625 -0.71875 C 0.554688 -0.625 0.609375 -0.539062 0.671875 -0.46875 C 0.734375 -0.40625 0.8125 -0.351562 0.90625 -0.3125 C 1 -0.269531 1.097656 -0.25 1.203125 -0.25 C 1.328125 -0.25 1.441406 -0.269531 1.546875 -0.3125 C 1.660156 -0.363281 1.75 -0.4375 1.8125 -0.53125 L 1.8125 -1.515625 C 1.75 -1.609375 1.660156 -1.675781 1.546875 -1.71875 C 1.441406 -1.769531 1.328125 -1.796875 1.203125 -1.796875 C 1.097656 -1.796875 1 -1.773438 0.90625 -1.734375 C 0.8125 -1.691406 0.734375 -1.632812 0.671875 -1.5625 C 0.609375 -1.5 0.554688 -1.421875 0.515625 -1.328125 C 0.472656 -1.234375 0.453125 -1.132812 0.453125 -1.03125 Z M 0.453125 -1.03125 "/></g></g><g style="fill:#000000;fill-opacity:1;"><g transform="translate(116.503067, 79.688101)"><path style="stroke:none" d="M 0.40625 -2.421875 C 0.351562 -2.421875 0.304688 -2.4375 0.265625 -2.46875 C 0.222656 -2.507812 0.203125 -2.5625 0.203125 -2.625 C 0.203125 -2.675781 0.222656 -2.722656 0.265625 -2.765625 C 0.304688 -2.804688 0.351562 -2.828125 0.40625 -2.828125 C 0.457031 -2.828125 0.503906 -2.804688 0.546875 -2.765625 C 0.585938 -2.722656 0.609375 -2.675781 0.609375 -2.625 C 0.609375 -2.5625 0.585938 -2.507812 0.546875 -2.46875 C 0.503906 -2.4375 0.457031 -2.421875 0.40625 -2.421875 Z M 0.546875 -2.03125 L 0.546875 0 L 0.25 0 L 0.25 -2.03125 Z M 0.546875 -2.03125 "/></g></g><g style="fill:#000000;fill-opacity:1;"><g transform="translate(117.31133, 79.688101)"><path style="stroke:none" d="M 1.96875 -0.21875 C 1.851562 -0.132812 1.734375 -0.0703125 1.609375 -0.03125 C 1.484375 0.0078125 1.347656 0.03125 1.203125 0.03125 C 1.054688 0.03125 0.921875 0.00390625 0.796875 -0.046875 C 0.671875 -0.0976562 0.5625 -0.171875 0.46875 -0.265625 C 0.375 -0.359375 0.296875 -0.46875 0.234375 -0.59375 C 0.179688 -0.726562 0.15625 -0.867188 0.15625 -1.015625 C 0.15625 -1.160156 0.179688 -1.296875 0.234375 -1.421875 C 0.285156 -1.546875 0.359375 -1.65625 0.453125 -1.75 C 0.546875 -1.84375 0.648438 -1.914062 0.765625 -1.96875 C 0.890625 -2.03125 1.019531 -2.0625 1.15625 -2.0625 C 1.289062 -2.0625 1.414062 -2.03125 1.53125 -1.96875 C 1.65625 -1.914062 1.757812 -1.84375 1.84375 -1.75 C 1.925781 -1.65625 1.992188 -1.546875 2.046875 -1.421875 C 2.097656 -1.296875 2.125 -1.160156 2.125 -1.015625 L 2.125 -0.921875 L 0.453125 -0.921875 C 0.472656 -0.722656 0.554688 -0.554688 0.703125 -0.421875 C 0.847656 -0.296875 1.019531 -0.234375 1.21875 -0.234375 C 1.320312 -0.234375 1.421875 -0.25 1.515625 -0.28125 C 1.617188 -0.3125 1.707031 -0.351562 1.78125 -0.40625 Z M 1.15625 -1.796875 C 0.976562 -1.796875 0.820312 -1.734375 0.6875 -1.609375 C 0.5625 -1.492188 0.488281 -1.34375 0.46875 -1.15625 L 1.828125 -1.15625 C 1.796875 -1.332031 1.71875 -1.484375 1.59375 -1.609375 C 1.46875 -1.734375 1.320312 -1.796875 1.15625 -1.796875 Z M 1.15625 -1.796875 "/></g></g><g style="fill:#000000;fill-opacity:1;"><g transform="translate(119.590624, 79.688101)"><path style="stroke:none" d="M 0.046875 -0.28125 L 0.234375 -0.46875 C 0.328125 -0.382812 0.429688 -0.316406 0.546875 -0.265625 C 0.660156 -0.222656 0.773438 -0.203125 0.890625 -0.203125 C 1.054688 -0.203125 1.1875 -0.234375 1.28125 -0.296875 C 1.382812 -0.367188 1.4375 -0.457031 1.4375 -0.5625 C 1.4375 -0.65625 1.40625 -0.722656 1.34375 -0.765625 C 1.289062 -0.816406 1.195312 -0.851562 1.0625 -0.875 L 0.71875 -0.921875 C 0.507812 -0.953125 0.351562 -1.007812 0.25 -1.09375 C 0.15625 -1.1875 0.109375 -1.3125 0.109375 -1.46875 C 0.109375 -1.632812 0.179688 -1.773438 0.328125 -1.890625 C 0.472656 -2.003906 0.65625 -2.0625 0.875 -2.0625 C 1.019531 -2.0625 1.15625 -2.039062 1.28125 -2 C 1.414062 -1.957031 1.546875 -1.890625 1.671875 -1.796875 L 1.515625 -1.59375 C 1.398438 -1.664062 1.289062 -1.71875 1.1875 -1.75 C 1.082031 -1.789062 0.972656 -1.8125 0.859375 -1.8125 C 0.722656 -1.8125 0.609375 -1.78125 0.515625 -1.71875 C 0.429688 -1.65625 0.390625 -1.578125 0.390625 -1.484375 C 0.390625 -1.398438 0.414062 -1.332031 0.46875 -1.28125 C 0.53125 -1.226562 0.628906 -1.195312 0.765625 -1.1875 L 1.109375 -1.140625 C 1.316406 -1.109375 1.46875 -1.046875 1.5625 -0.953125 C 1.664062 -0.859375 1.71875 -0.734375 1.71875 -0.578125 C 1.71875 -0.492188 1.695312 -0.410156 1.65625 -0.328125 C 1.613281 -0.253906 1.554688 -0.191406 1.484375 -0.140625 C 1.410156 -0.0859375 1.320312 -0.046875 1.21875 -0.015625 C 1.125 0.015625 1.019531 0.03125 0.90625 0.03125 C 0.738281 0.03125 0.578125 0.00390625 0.421875 -0.046875 C 0.273438 -0.0976562 0.148438 -0.175781 0.046875 -0.28125 Z M 0.046875 -0.28125 "/></g></g><g style="fill:#000000;fill-opacity:1;"><g transform="translate(121.393042, 79.688101)"><path style="stroke:none" d="M 0.40625 -0.390625 C 0.457031 -0.390625 0.503906 -0.367188 0.546875 -0.328125 C 0.585938 -0.285156 0.609375 -0.238281 0.609375 -0.1875 C 0.609375 -0.125 0.585938 -0.0703125 0.546875 -0.03125 C 0.503906 0.0078125 0.457031 0.03125 0.40625 0.03125 C 0.34375 0.03125 0.289062 0.0078125 0.25 -0.03125 C 0.207031 -0.0703125 0.1875 -0.125 0.1875 -0.1875 C 0.1875 -0.238281 0.207031 -0.285156 0.25 -0.328125 C 0.289062 -0.367188 0.34375 -0.390625 0.40625 -0.390625 Z M 0.40625 -0.390625 "/></g></g></g></svg>